# xmcd CD database file
#
# Track frame offsets:
#	150
#	15650
#	60575
#	75237
#	89050
#	157050
#	172712
#	182487
#	195462
#	221262
#	247287
#
# Disc length: 3502 seconds
#
# Revision: 0
# Processed by: cddbd v1.5.2PL0 Copyright (c) Steve Scherf et al.
# Submitted via: CDex 1.70beta2
#
DISCID=850dac0b
DTITLE=Manhattan Jazz Story - 1 Manhattan
DYEAR=1900
DGENRE=Jazz
TTITLE0=Manhattan - Lee Wiley
TTITLE1=On Green DolPhin Street - Miles Davis
TTITLE2=It Might As Well Be Spring - Sarah Vaughan
TTITLE3=Sophisticated Lady - Jean "Toots" Thielemans
TTITLE4=My Funny Valentine - Miles Davis
TTITLE5=Violets For Your Furs - Billie Holiday
TTITLE6=Speak Low - Tonny Bennett with Ralph Sharon Trio
TTITLE7=After Hours - Sarah Vaughan
TTITLE8=Monk's Dream - The Thelonious Monk Quartet
TTITLE9=Mornin' Glory - Bill Evans
TTITLE10=I'm A Fool To Want You - Billie Holiday
EXTD=
EXTT0=
EXTT1=
EXTT2=
EXTT3=
EXTT4=
EXTT5=
EXTT6=
EXTT7=
EXTT8=
EXTT9=
EXTT10=
PLAYORDER=
